<svg version="1.1" id="图层_1" xmlns="http://www.w3.org/2000/svg" x="0" y="0" viewBox="0 0 200 200" style="enable-background:new 0 0 200 200" xml:space="preserve"><style>.st3{fill:#6b0a0c}.st4{fill:#e2375c}</style><circle cx="100" cy="100" r="100" style="fill:#ff9182"/><circle cx="100" cy="100" r="97" style="fill:#fff"/><path d="M81 147.7c.7-1.5 1.6-2.2 2.7-1.4l8.1 5.7 7.5 5.3h1.2l7.5-5.3 8.1-5.7c1.2-.8 2.1-.1 2.8 1.4 1.3-1.8 2.4-3.9 3.2-6-.2-.1-.3-.1-.5-.2l-1.8-.6c-.2-.1-.5-.1-.7-.2-1.7-.5-3.4-.9-5.1-1.3-.2 0-.5-.1-.7-.1-.9-.2-1.9-.4-2.8-.5l-2-.3c-.3 0-.5-.1-.8-.1l-2.8-.3h-10l-2.8.3c-.3 0-.5.1-.8.1l-2 .3c-.9.1-1.9.3-2.8.5-.2 0-.5.1-.7.1-1.8.4-3.5.8-5.2 1.3-.2.1-.4.1-.6.2l-1.8.6c-.2.1-.3.1-.5.2.9 2.1 1.9 4.2 3.3 6z" style="fill:#fefefe"/><path class="st3" d="M92.4 51.3h1.8c1.9.1 4.4.4 6.3.7 1.5.3 3.5.8 5 1.1.1 0 .3.1.4.1 1.9.6 4.4 1.4 6.2 2.1 1.2.5 2.7 1.2 3.9 1.7 1 .5 2.2 1.1 3.1 1.6 1 .6 2.4 1.4 3.4 2l3 2c2 1.3 4.3 3.2 5.9 4.5.8.7 1.9 1.6 2.7 2.4.8.8 1.8 1.7 2.6 2.5s1.7 1.8 2.5 2.6 1.7 1.9 2.4 2.7c.7.8 1.6 2 2.2 2.8.7.9 1.5 2 2.1 2.9.6.9 1.4 2.1 1.9 3 .6 1 1.3 2.2 1.8 3.2.5.9 1.1 2.2 1.6 3.1.4 1 1 2.2 1.4 3.2.4 1.1 1 2.5 1.3 3.6 1 3 1.5 5.1 1.9 7.1.4 1.8.7 4.3.8 6.2 0 .9.1 2.1.1 3 0 1.1-.1 2.5-.2 3.5-.2 1.5-.4 3.4-.8 4.9-.2.8-.4 1.8-.7 2.6-.4 1.2-1 2.8-1.5 3.9-.3.7-.8 1.7-1.1 2.3l-2 3.3c-.4.6-1.1 1.5-1.6 2.1-.7.9-1.8 2-2.5 2.8l-1.2 1.1c-.2.6-.3 1.1-.5 1.6-.1.2-.2.5-.3.7v.1c-.2.5-.4 1.1-.7 1.6-.1.2-.2.5-.3.7-.4.8-1.1 1.8-1.5 2.6-.6.9-1.6 2.1-2.3 2.9-.6.6-1.4 1.4-2.1 1.9-.4.4-1 .8-1.5 1.1-.7.5-1.7 1.1-2.5 1.6-1.1.6-2.6 1.2-3.7 1.7-.6.2-1.4.4-2 .6-.7.2-1.7.4-2.5.6-.5.1-1.2.2-1.8.3-.8.3-1.6.6-2.2.9-.8.3-1.8.6-2.6.8-2.6.7-4.6 1-7.2 1.3-1.1.1-2.3.1-3.5.1H106c-.3 0-.6 0-1-.1-.7 0-1.4-.1-2.2-.2-1.1-.1-2.2-.3-3.1-.5-1.5-.3-3.4-.7-4.9-1.1l-3.3-1c-1-.3-2.3-.8-3.2-1.2-1.2-.5-2.7-1.2-3.9-1.7-1-.4-2.2-1.1-3.1-1.6-1-.6-2.4-1.4-3.4-2l-3-2c-.9-.6-2.1-1.5-3-2.2-.8-.7-2-1.6-2.8-2.3l-2.7-2.4c-.8-.8-1.8-1.7-2.6-2.5s-1.7-1.8-2.5-2.6-1.7-1.9-2.4-2.7c-.7-.8-1.6-1.9-2.2-2.8-.7-.9-1.5-2-2.1-2.9-.6-.9-1.4-2.1-1.9-3-.6-1-1.3-2.2-1.8-3.2-.5-.9-1.1-2.2-1.6-3.1-.5-1.1-1.1-2.5-1.6-3.5-.4-1-.9-2.2-1.2-3.2-.4-1.2-.9-2.8-1.2-4-.4-1.9-.9-4.4-1.2-6.3a32.53 32.53 0 0 1-.2-7.2c0-.6.1-1.1.1-1.7 0-.4.1-.9.1-1.2.2-1.5.6-3.5.9-5 .2-1 .6-2.1 1-3.1v-.1c.1-.3.2-.6.4-.9.2-.5.5-1.1.7-1.7l.3-2c.1-.3.1-.7.2-1 .3-1.1.6-2.2.9-3.1.3-1 .9-2.2 1.4-3.1.4-.8 1-1.8 1.6-2.6l1.1-1.5a21.72 21.72 0 0 1 4.6-4.3c.7-.5 1.7-1.2 2.5-1.6l3.7-1.7c.6-.2 1.3-.4 1.9-.6l1.2-1.2c1.1-1.1 2.7-2.4 4-3.3.9-.7 2.2-1.5 3.2-2s2.4-1.2 3.5-1.7c.7-.3 1.8-.7 2.5-1a35.97 35.97 0 0 1 9.7-2h3m0-5.5c-1.4 0-2.8.1-3.9.1-1.9.2-4.3.5-6.2.9-.7.1-3 .7-4.9 1.4-.2.1-.4.2-.7.2-.7.3-1.4.5-2.1.8-1.1.5-2.6 1.2-3.8 1.9-1.2.7-2.8 1.6-3.9 2.5-1.7 1.3-3.6 3-4.4 3.7l-.1.1-.1.1-.3.3c-.3.1-.6.2-.8.3-1.1.4-2.6 1.1-4.4 1.9-1.2.6-2.5 1.5-3.3 2.1-1.1.8-2.4 1.9-3.4 2.8-.6.6-1.3 1.3-2.2 2.4-.4.5-.8 1-1.1 1.4l-.2.3c-.8 1.1-1.5 2.4-2 3.3-.5.9-1.2 2.4-1.7 3.8-.4 1.2-.8 2.5-1.1 3.6l-.3 1.3c-.1.4-.2 1-.3 1.5-.2.4-.4.8-.5 1.2-.1.3-.3.7-.4 1.1v.1c-.4 1.3-.9 2.6-1.1 3.7-.2.8-.8 3.4-1.1 5.7-.1.4-.1.9-.1 1.4 0 .6-.1 1.2-.1 1.8-.1 1.1-.1 2.2-.1 3.1 0 1.7.2 3.7.4 5.1.3 2.2.8 4.8 1.3 6.8.4 1.4.9 3.2 1.3 4.4.4 1.3 1.1 2.9 1.3 3.5.5 1.3 1.2 2.8 1.7 3.9.5 1 1.1 2.3 1.7 3.3.7 1.3 1.6 2.9 2 3.5.6.9 1.4 2.2 2.1 3.2.6.9 1.5 2.2 2.3 3.2.4.5 1.5 1.9 2.4 3.1l.4.5c.7.8 1.4 1.7 2.1 2.5l.8.8c.6.6 1.3 1.3 1.8 1.9.5.6 1.2 1.2 1.9 1.8l.8.7c.9.9 2.1 1.9 3 2.7.7.6 1.6 1.3 2.4 1.9l.5.4c.8.6 1.9 1.4 3.3 2.4 1 .7 2.3 1.5 3.2 2.1 1.1.7 2.5 1.5 3.6 2.1.5.3 2.1 1.1 3.5 1.8.7.3 2.6 1.2 4.1 1.8 1.1.5 2.6 1 3.6 1.4 1.2.4 2.5.8 3.7 1.1 1.2.3 2.9.7 5.1 1.2 1 .2 2.3.4 3.7.6.7.1 1.5.1 2.4.2h.2c.3 0 .6 0 .8.1.5 0 1 0 1.5.1h.7a53.97 53.97 0 0 0 12.2-1.6c.4-.1 1.8-.5 3.1-1 .5-.2 1.1-.4 1.8-.7.5-.1 1-.2 1.4-.2 1.3-.3 2.3-.5 3-.7l.4-.1c.6-.2 1.3-.4 2-.6 1.8-.7 3.2-1.3 4.3-1.9.8-.4 1.8-1.1 3-1.9.3-.2 1.3-.9 2.1-1.6l.3-.3a28.36 28.36 0 0 0 5.1-5.7c.5-.8 1.3-2 1.8-3.1.1-.3.3-.5.4-.8.3-.6.6-1.2.8-1.9v-.2c.1-.3.2-.6.3-.8.1-.2.1-.4.2-.5l.1-.1c.9-.9 2-2.1 2.8-3.1.8-.9 1.6-2 1.9-2.5.9-1.4 1.9-3.1 2.3-3.7.4-.8.9-1.7 1.2-2.4l.1-.3c.6-1.3 1.2-3 1.7-4.5.3-.8.5-1.6.7-2.3l.2-.6c.6-2.1.9-4.7 1-5.7.1-1.3.2-2.9.2-4 0-1.3 0-2.8-.1-3.4-.1-2.1-.4-4.9-.9-7-.5-2.4-1-4.6-2.1-7.8-.4-1.3-1-2.9-1.4-3.9-.4-1.1-1.1-2.5-1.5-3.4-.6-1.4-1.5-3-1.7-3.4-.6-1-1.3-2.4-2-3.4-.6-1-1.4-2.2-2.1-3.2-1-1.4-1.7-2.5-2.3-3.2l-.5-.7c-.6-.8-1.2-1.6-1.8-2.3-.8-.9-1.8-2.1-2.6-3l-.7-.8c-.6-.7-1.3-1.4-1.8-1.9-.5-.6-1.2-1.2-1.9-1.8l-.8-.8-2.5-2.2-.1-.7c-1.7-1.4-4.2-3.4-6.3-4.8-1.1-.7-2.3-1.6-3.2-2.1-.5-.3-2.2-1.3-3.7-2.1-.8-.4-2.2-1.2-3.4-1.8-1.3-.6-2.9-1.3-4.2-1.8-2-.8-4.5-1.6-6.6-2.3h-.1l-.3-.1h-.2c-1.8-.5-3.9-1-5.5-1.2-.9-.2-4.1-.6-6.9-.8-.7-.2-1.5-.2-2.2-.2z"/><path class="st4" d="M44.9 111.3c-.4-1.9-.9-4.4-1.2-6.3-.2-1.3-.3-3.1-.3-4.4 0-1.7.1-4 .3-5.7.2-1.5.6-3.5.9-5 .3-1.3.8-2.9 1.3-4.1.6-1.4 1.5-3.3 2.2-4.7.6-1 1.4-2.3 2.1-3.3.5-.6 1.1-1.4 1.6-2 .6-.7 1.4-1.5 2-2.1-5.9 5.8-8 15.3-4.9 27.3 6.2 24.4 31.3 49.7 56.1 56.5 12.6 3.5 22.7 1.5 28.8-4.4-1.1 1.1-2.7 2.5-4 3.4-.9.6-2 1.4-2.9 1.9-.7.4-1.6.9-2.3 1.2-1.1.5-2.6 1.1-3.7 1.5-.8.3-1.8.6-2.6.8-2.6.7-4.6 1-7.2 1.3-1.7.1-3.9.2-5.5.1-1.9-.1-4.4-.3-6.3-.7-1.5-.3-3.4-.7-4.9-1.1l-3.3-1c-1-.3-2.3-.8-3.2-1.2-1.2-.5-2.7-1.2-3.9-1.7-1-.4-2.2-1.1-3.1-1.6-1-.6-2.4-1.4-3.4-2l-3-2c-.9-.6-2.1-1.5-3-2.2-.8-.7-2-1.6-2.8-2.3l-2.7-2.4c-.8-.8-1.8-1.7-2.6-2.5s-1.7-1.8-2.5-2.6l-2.4-2.7c-.7-.8-1.6-1.9-2.2-2.8-.7-.9-1.5-2-2.1-2.9-.6-.9-1.4-2.1-1.9-3-.6-1-1.3-2.2-1.8-3.2-.5-.9-1.1-2.2-1.6-3.1-.5-1.1-1.1-2.5-1.6-3.5-.4-1-.9-2.2-1.2-3.2-.4-1.4-.9-3.1-1.2-4.3z"/><path d="M87.2 64.8c24.8 6.9 49.9 32.2 56.1 56.5 6.2 24.4-8.9 38.5-33.7 31.7-24.8-6.9-49.9-32.2-56.1-56.5-6.2-24.4 8.9-38.6 33.7-31.7z" style="fill:#f7afd4"/><path d="M86.7 63.4c-1.3-.4-3.1-.8-4.5-1-1.4-.3-3.4-.6-4.8-.7-1.7-.1-3.9-.2-5.5-.1-1.3.1-3.1.3-4.4.5-.7.1-1.6.3-2.2.5-.7.2-1.6.5-2.2.7-1.1.4-2.6 1.1-3.7 1.7-.8.4-1.8 1-2.5 1.6-.9.7-2.1 1.6-2.9 2.4-.6.5-1.2 1.3-1.7 1.9-.4.4-.8 1.1-1.1 1.5-.5.7-1.1 1.8-1.6 2.6-.5.9-1 2.1-1.4 3.1-.4 1.2-.9 2.9-1.2 4.1-.3 1.4-.5 3.2-.6 4.6-.1 1.2-.1 2.9 0 4.1.1 1.8.5 4.3.7 6.1.2 1 .5 2.2.7 3.2.3 1.3.8 3 1.2 4.2.4 1.2 1 2.7 1.4 3.9.4 1.1 1.1 2.5 1.6 3.6.6 1.1 1.3 2.6 1.9 3.7.6 1.1 1.4 2.5 2.1 3.6l2.3 3.6c.7 1.1 1.7 2.5 2.5 3.5.8 1.1 1.9 2.4 2.7 3.4.8 1 2 2.4 2.9 3.3.9 1 2.1 2.3 3 3.2.9.9 2.2 2.1 3.2 3.1 1 .9 2.3 2.1 3.3 2.9 1 .9 2.4 1.9 3.4 2.8 1.1.8 2.5 1.9 3.6 2.7 2.1 1.4 5 3.3 7.2 4.5 1.2.6 2.7 1.5 3.9 2.1l3.7 1.7c1.2.5 2.9 1.2 4.2 1.6 1.1.4 2.5.8 3.6 1.1 1.3.4 3.1.8 4.5 1 1 .2 2.2.4 3.2.5 1.3.1 3.1.3 4.5.3 1.4.1 3.3-.1 4.8-.2.7-.1 1.6-.2 2.3-.4.7-.1 1.8-.4 2.5-.6.6-.2 1.4-.4 2-.6 1.1-.4 2.6-1.1 3.7-1.7.8-.4 1.8-1.1 2.5-1.6.5-.3 1.1-.8 1.5-1.1.6-.6 1.5-1.3 2.1-1.9.8-.8 1.7-2 2.3-2.9.5-.8 1.1-1.8 1.5-2.6.5-.9 1-2.2 1.3-3.1.4-1.2.8-2.9 1.1-4.2.2-.7.3-1.6.4-2.2.1-.7.2-1.7.2-2.5v-3.7c-.1-1.8-.4-4.3-.7-6.1-.2-1.2-.6-2.7-.9-3.9-.3-1.1-.7-2.5-1.1-3.5-.4-1.2-1-2.7-1.4-3.9-.4-1.1-1.1-2.5-1.6-3.6-.6-1.1-1.3-2.6-1.9-3.7-.6-1.1-1.4-2.5-2.1-3.6l-2.3-3.6c-.7-1.1-1.7-2.5-2.5-3.5l-2.7-3.4c-.8-1-2-2.4-2.9-3.3-.9-1-2.1-2.3-3-3.2s-2.2-2.1-3.2-3.1c-1-.9-2.3-2-3.3-2.9-1-.9-2.4-2-3.4-2.8-1.1-.8-2.5-1.9-3.6-2.7-2.4-1.7-4.9-3.2-7.5-4.7-2.1-1.2-5-2.6-7.3-3.5-1.2-.5-2.9-1.2-4.2-1.6-1-.5-2.5-.9-3.6-1.2.7.2.7.2 0 0z" style="fill:#ffeb9a"/><path class="st3" d="M87.7 62c25.7 7.1 51.6 33.3 58 58.5 6.4 25.2-9.2 39.9-34.9 32.8-26.7-7.4-50.6-29.3-58-58.5C46.4 69.6 62 54.9 87.7 62z"/><path d="M148.6 138.1a29.04 29.04 0 0 0 3.6-5.4 45.05 45.05 0 0 0 2.6-6.2c.3-.8.5-1.8.7-2.6.4-1.4.7-3.4.8-4.9.1-1.1.2-2.5.2-3.5 0-.9 0-2.1-.1-3-.1-1.9-.4-4.4-.8-6.2-.4-2-.9-4.1-1.9-7.1l-1.3-3.6c-.4-1-1-2.2-1.4-3.2-.4-1-1.1-2.2-1.6-3.1-.5-1-1.3-2.3-1.8-3.2-.6-.9-1.3-2.1-1.9-3-.6-.9-1.4-2.1-2.1-2.9-.7-.8-1.5-2-2.2-2.8-.7-.8-1.6-1.9-2.4-2.7s-1.7-1.8-2.5-2.6-1.8-1.8-2.6-2.5l-2.7-2.4a81.9 81.9 0 0 0-5.9-4.5l-3-2c-1-.6-2.3-1.4-3.4-2-.9-.5-2.2-1.2-3.1-1.6-1.1-.5-2.7-1.2-3.9-1.7-1.8-.7-4.2-1.5-6.2-2.1.1 0 .2.1.2.1-.1 0-.2-.1-.2-.1-.1 0-.3-.1-.4-.1-1.5-.4-3.5-.9-5-1.1-1.9-.3-4.4-.6-6.3-.7-1.6-.1-3.7 0-5.3.1-1.7.1-3.9.5-5.6.8-1.2.3-2.9.7-4.1 1.2-.8.3-1.8.6-2.5 1-1.1.5-2.5 1.2-3.5 1.7s-2.3 1.4-3.2 2c-1.2.9-2.8 2.3-4 3.3-5.9 5.8-8 15.3-4.9 27.3 6.2 24.3 31.3 49.7 56.1 56.5 12.6 3.5 22.7 1.5 28.8-4.4 1.1-.8 2.1-1.9 2.8-2.8z" style="fill:#ff5a78"/><path d="M145 127c.4-.5.9-1.1 1.2-1.7.5-.8 1.2-1.8 1.6-2.6.3-.5.7-1.3.9-1.9.4-.9.9-2.2 1.2-3.1.2-.6.4-1.4.6-2 .3-1.1.5-2.7.6-3.9.1-.8.1-2 .2-2.8v-2.4a40.88 40.88 0 0 0-3.2-13.4c-.3-.8-.8-1.8-1.1-2.5-.4-.8-.9-1.8-1.3-2.5-.4-.8-1-1.8-1.5-2.6-.4-.7-1.1-1.7-1.5-2.4-.5-.7-1.1-1.7-1.7-2.4-.5-.7-1.2-1.6-1.8-2.2-.5-.7-1.3-1.5-1.9-2.2-.6-.6-1.4-1.5-2-2.1-.6-.6-1.4-1.4-2.1-2-.6-.6-1.5-1.3-2.2-1.9-1.2-1-3.1-2.5-4.7-3.6-.7-.5-1.7-1.1-2.4-1.6-.8-.5-1.9-1.1-2.7-1.6-.7-.4-1.7-.9-2.5-1.3l-3.1-1.4c-1.4-.6-3.4-1.2-4.9-1.7.1 0 .1 0 .2.1-.1 0-.1 0-.2-.1-.1 0-.2-.1-.3-.1-1.2-.3-2.8-.7-4-.9-1.5-.2-3.5-.5-5-.5a33.54 33.54 0 0 0-8.6.8c-1 .2-2.3.6-3.3.9-.6.2-1.4.5-2 .8-.9.4-2 .9-2.8 1.4a26.92 26.92 0 0 0-5.7 4.3c-4.7 4.6-6.4 12.2-3.9 21.7 4.9 19.4 25 39.6 44.7 45.1 10.1 2.8 18.1 1.2 22.9-3.5.9-.6 1.7-1.5 2.3-2.2z" style="fill:#ffadbc"/><path class="st4" d="m61.6 65.9 4.5-4.4c-5.9 5.8-8 15.3-4.9 27.3 6.2 24.4 31.3 49.7 56.1 56.5 12.6 3.5 22.7 1.5 28.8-4.4l-4.5 4.4c-6.1 6-16.2 7.9-28.8 4.4-24.8-6.9-49.9-32.2-56.1-56.5-3-12-.9-21.5 4.9-27.3zM89.8 78.2a2.9 2.9 0 1 0 5.8 0 2.9 2.9 0 0 0-5.8 0zM112.6 92.8a2.9 2.9 0 1 0 2.9-2.9c-1.6.1-2.9 1.3-2.9 2.9zM134 103.1a2.9 2.9 0 1 0 5.8 0 2.9 2.9 0 0 0-5.8 0z"/><path class="st4" d="M118.8 116.9a2.9 2.9 0 1 0 5.8 0 2.9 2.9 0 0 0-5.8 0zM96.7 105.8a2.9 2.9 0 0 0 5.8 0 2.9 2.9 0 0 0-5.8 0zM125.6 80.6a2.9 2.9 0 1 0 5.8 0 2.9 2.9 0 0 0-5.8 0zM104.6 71.3a2.9 2.9 0 1 0 5.8 0 2.9 2.9 0 0 0-5.8 0z"/></svg>