<svg version="1.1" id="图层_1" xmlns="http://www.w3.org/2000/svg" x="0" y="0" viewBox="0 0 200 200" style="enable-background:new 0 0 200 200" xml:space="preserve"><style>.st0{fill:#0084ff}.st1{fill:#c834ab}.st2{fill:#813ac9}.st3{fill:#feb54d}.st4{fill:#febd4f}.st5{fill:#db3e87}.st6{fill:#9e2ec3}.st7{fill:#7b3eca}.st8{fill:#fec34f}.st9{fill:#614fca}.st10{fill:#cb35a6}.st11{fill:#fec850}.st12{fill:#9830c4}.st13{fill:#fecf51}.st14{fill:#5457cb}.st15{fill:#df407f}.st16{fill:#e24378}.st17{fill:#6d48c7}.st18{fill:#5954cb}.st19{fill:#7641ca}.st20{fill:#de3f82}.st21{fill:#7445c6}.st22{fill:#d33a95}.st23{fill:#9332c6}.st24{fill:#aa2cbe}.st25{fill:#505bcb}.st26{fill:#d0389c}.st27{fill:#4c5eca}.st28{fill:#bb2eb5}.st29{fill:#fc5240}.st30{fill:#feaf4c}.st31{fill:#fe7c43}.st32{fill:#ae2cbc}.st33{fill:#8b35c8}.st34{fill:#c030b1}.st35{fill:#6c46cb}.st36{fill:#4365ca}.st37{fill:#a52dc0}.st38{fill:#e8466b}.st39{fill:#d23998}.st40{fill:#b72db7}.st41{fill:#5d51cb}.st42{fill:#fe8344}.st43{fill:#b32cba}.st44{fill:#d93d8c}.st45{fill:#7a42c3}.st46{fill:#fea94b}.st47{fill:#eb4767}.st48{fill:#f24c56}.st49{fill:#a12dc2}.st50{fill:#fa5045}.st51{fill:#ce37a0}.st52{fill:#e44375}.st53{fill:#fea04a}.st54{fill:#f44e51}.st55{fill:#fe9d49}.st56{fill:#fe673f}.st57{fill:#fe8c45}.st58{fill:#4861ca}.st59{fill:#f74f4b}.st60{fill:#c432ae}.st61{fill:#ee4a5f}.st62{fill:#e7456e}.st63{fill:#8040c0}.st64{fill:#ed4963}.st65{fill:#873ebd}.st66{fill:#fe613e}.st67{fill:#fe6d40}.st68{fill:#fedd54}.st69{fill:#9033c7}.st70{fill:#fed853}.st71{fill:#f04c58}.st72{fill:#f34d54}.st73{fill:#fe9246}.st74{fill:#3e69c9}.st75{fill:#8e3bb9}.st76{fill:#8f33c7}.st77{fill:#fe7241}.st78{fill:#fe543c}.st79{fill:#ef4b5c}.st80{fill:#fe5e3e}.st81{fill:#e64471}.st82{fill:#9c37b2}.st83{fill:#fe7742}.st84{fill:#b9379c}.st85{fill:#b436a0}.st86{fill:#aa36a8}.st87{fill:#fe9847}.st88{fill:#fe593d}.st89{fill:#a536ac}.st90{fill:#fe9447}.st91{fill:#ca3a8c}.st92{fill:#db4079}.st93{fill:#a136af}.st94{fill:#af36a5}.st95{fill:#d73e7e}.st96{fill:#e94668}.st97{fill:#dd3f83}.st98{fill:#674bc9}.st99{fill:#8736c8}.st100{fill:#a82cbf}.st101{fill:#fefefe}.st102{fill:#feb24d}.st103{fill:#fe8945}.st104{fill:#feac4c}.st105{fill:#fea64b}.st106{fill:#fea34a}.st107{fill:#fe9747}.st108{fill:#fe8f46}.st109{fill:#d73c8f}.st110{fill:#7940c8}.st111{fill:#684aca}.st112{fill:#644dca}.st113{fill:#604fca}.st114{fill:#7143cb}.st115{fill:#fd523e}.st116{fill:#fe583d}.st117{fill:#fb5142}.st118{fill:#eb4865}.st119{fill:#f04c59}.st120{fill:#e64472}.st121{fill:#9538b7}.st122{fill:#fe7a42}.st123{fill:#fe6e40}.st124{fill:#fe7f43}.st125{fill:#bf3896}.st126{fill:#c53890}.st127{fill:#d33d82}.st128{fill:#cf3b87}.st129{fill:#e04273}.st130{fill:#e4436d}.st131{fill:#ee4a5e}.st132{fill:#fe7d43}.st133{fill:#fe6b40}.st134{fill:#d63b90}.st135{fill:#d1389a}.st136{fill:#fa5043}.st137{fill:#fe8644}.st138{fill:#c53891}.st139{fill:#9c35b7}.st140{fill:#f95048}.st141{fill:#a831b6}.st142{fill:#d33d83}.st143{fill:#a136b0}.st144{fill:#bf3897}.st145{fill:#fe5a3d}.st146{fill:#fe8244}.st147{fill:#af2eb8}.st148{fill:#fe643f}.st149{fill:#c934a9}.st150{fill:#e94669}.st151{fill:#cc36a3}.st152{fill:#fe9a49}.st153{fill:#e84569}.st154{fill:#dc3f86}.st155{fill:#da3e88}.st156{fill:#df407e}.st157{fill:#de4082}.st158{fill:#cf3894}.st159{fill:#ca3795}.st160{fill:#c43796}.st161{fill:#b533a8}.st162{fill:#af33ac}.st163{fill:#a233b5}.st164{fill:#bb34a2}.st165{fill:#bf369b}.st166{fill:#a834af}.st167{fill:#ae31b2}.st168{fill:#b530b0}.st169{fill:#f95047}.st170{fill:#be32a8}.st171{fill:#ba30ae}.st172{fill:#f24c57}.st173{fill:#c234a2}.st174{fill:#c7359c}.st175{fill:#cc3798}.st176{fill:#b131af}.st177{fill:#425f9b}.st178{fill:#1643df}.st180{fill:#eef6ff}.st181{fill:#1c2754}.st182{fill:#b3d7ff}.st183{fill:#1097ff}.st184{fill:#ff760f}.st185{fill:#4654a3}.st187{fill:#75b543}.st188{fill:#156c37}.st189{fill:#f2f0f0}.st190{fill:#7b7f7e}</style><path d="m11.4 189 12.5-45.7a88.54 88.54 0 0 1-11.8-44.1c0-48.6 39.6-88.2 88.2-88.2 23.6 0 45.8 9.2 62.4 25.9a87.5 87.5 0 0 1 25.8 62.4c0 48.6-39.6 88.2-88.2 88.2-14.8 0-29.3-3.7-42.2-10.7L11.4 189z" style="fill:#3ac34c"/><path d="M78.3 62.3c-1.8-4.3-3.6-3.7-5-3.8-1.3-.1-2.8-.1-4.2-.1-1.5 0-3.9.5-5.9 2.8-2 2.2-7.7 7.5-7.7 18.4 0 10.9 7.9 21.3 9 22.8 1.1 1.5 15.5 23.7 37.7 33.3 5.3 2.3 9.4 3.6 12.6 4.6 5.3 1.7 10.1 1.4 13.9.9 4.2-.6 13-5.3 14.9-10.5 1.8-5.2 1.8-9.6 1.3-10.5-.6-.9-2-1.5-4.2-2.6s-13-6.4-15.1-7.2c-2-.7-3.5-1.1-5 1.1s-5.7 7.2-7 8.6c-1.3 1.5-2.6 1.7-4.8.6-2.2-1.1-9.3-3.4-17.7-10.9-6.6-5.8-11-13.1-12.3-15.3-1.3-2.2-.1-3.4 1-4.5 1-1 2.2-2.6 3.3-3.9 1.1-1.3 1.5-2.2 2.2-3.7.7-1.5.4-2.8-.2-3.9-.5-.9-4.9-11.8-6.8-16.2z" style="fill:#fff"/></svg>